<?xml version="1.0" encoding="utf-8"?>
<!-- Generator: Adobe Illustrator 16.0.0, SVG Export Plug-In . SVG Version: 6.00 Build 0)  -->
<!DOCTYPE svg PUBLIC "-//W3C//DTD SVG 1.1//EN" "http://www.w3.org/Graphics/SVG/1.1/DTD/svg11.dtd">
<svg version="1.1" id="Calque_1" xmlns="http://www.w3.org/2000/svg" xmlns:xlink="http://www.w3.org/1999/xlink" x="0px" y="0px"
	 width="627.59px" height="524.92px" viewBox="0 0 627.59 524.92" enable-background="new 0 0 627.59 524.92" xml:space="preserve">
<g>
	
		<line fill="none" stroke="#000000" stroke-width="0.2835" stroke-miterlimit="10" x1="488.182" y1="256.794" x2="526.452" y2="256.755"/>
	
		<line fill="none" stroke="#000000" stroke-width="0.2835" stroke-miterlimit="10" x1="526.443" y1="248.246" x2="526.452" y2="256.755"/>
	
		<line fill="none" stroke="#000000" stroke-width="0.2835" stroke-miterlimit="10" x1="526.443" y1="248.246" x2="563.854" y2="248.209"/>
	
		<line fill="none" stroke="#000000" stroke-width="0.2835" stroke-miterlimit="10" x1="563.854" y1="248.209" x2="563.862" y2="256.719"/>
	
		<line fill="none" stroke="#000000" stroke-width="0.2835" stroke-miterlimit="10" x1="563.862" y1="256.719" x2="593.633" y2="256.69"/>
	
		<line fill="none" stroke="#000000" stroke-width="0.2835" stroke-miterlimit="10" x1="487.927" y1="1.107" x2="526.193" y2="1.069"/>
	
		<line fill="none" stroke="#000000" stroke-width="0.2835" stroke-miterlimit="10" x1="526.193" y1="1.069" x2="526.203" y2="9.577"/>
	
		<line fill="none" stroke="#000000" stroke-width="0.2835" stroke-miterlimit="10" x1="526.203" y1="9.577" x2="563.612" y2="9.539"/>
	
		<line fill="none" stroke="#000000" stroke-width="0.2835" stroke-miterlimit="10" x1="563.604" y1="1.031" x2="563.612" y2="9.539"/>
	<line fill="none" stroke="#000000" stroke-width="0.2835" stroke-miterlimit="10" x1="563.604" y1="1.031" x2="593.375" y2="1"/>
	
		<line fill="none" stroke="#000000" stroke-width="0.2835" stroke-miterlimit="10" x1="488.182" y1="256.794" x2="488.132" y2="205.375"/>
	
		<line fill="none" stroke="#000000" stroke-width="0.2835" stroke-miterlimit="10" x1="496.632" y1="205.365" x2="488.132" y2="205.375"/>
	
		<line fill="none" stroke="#000000" stroke-width="0.2835" stroke-miterlimit="10" x1="496.632" y1="205.365" x2="496.58" y2="154.795"/>
	
		<line fill="none" stroke="#000000" stroke-width="0.2835" stroke-miterlimit="10" x1="496.58" y1="154.795" x2="488.08" y2="154.805"/>
	
		<line fill="none" stroke="#000000" stroke-width="0.2835" stroke-miterlimit="10" x1="488.08" y1="154.805" x2="488.027" y2="103.095"/>
	
		<line fill="none" stroke="#000000" stroke-width="0.2835" stroke-miterlimit="10" x1="496.527" y1="103.086" x2="488.027" y2="103.095"/>
	
		<line fill="none" stroke="#000000" stroke-width="0.2835" stroke-miterlimit="10" x1="496.527" y1="103.086" x2="496.477" y2="52.517"/>
	
		<line fill="none" stroke="#000000" stroke-width="0.2835" stroke-miterlimit="10" x1="496.477" y1="52.517" x2="487.977" y2="52.527"/>
	
		<line fill="none" stroke="#000000" stroke-width="0.2835" stroke-miterlimit="10" x1="487.977" y1="52.527" x2="487.927" y2="1.107"/>
	
		<line fill="none" stroke="#000000" stroke-width="0.2835" stroke-miterlimit="10" x1="593.633" y1="256.69" x2="593.581" y2="205.83"/>
	
		<line fill="none" stroke="#000000" stroke-width="0.2835" stroke-miterlimit="10" x1="602.081" y1="205.822" x2="593.581" y2="205.83"/>
	
		<line fill="none" stroke="#000000" stroke-width="0.2835" stroke-miterlimit="10" x1="602.081" y1="205.822" x2="602.027" y2="154.121"/>
	
		<line fill="none" stroke="#000000" stroke-width="0.2835" stroke-miterlimit="10" x1="602.027" y1="154.121" x2="593.527" y2="154.129"/>
	
		<line fill="none" stroke="#000000" stroke-width="0.2835" stroke-miterlimit="10" x1="593.527" y1="154.129" x2="593.479" y2="103.559"/>
	
		<line fill="none" stroke="#000000" stroke-width="0.2835" stroke-miterlimit="10" x1="601.979" y1="103.55" x2="593.479" y2="103.559"/>
	
		<line fill="none" stroke="#000000" stroke-width="0.2835" stroke-miterlimit="10" x1="601.979" y1="103.55" x2="601.927" y2="51.85"/>
	
		<line fill="none" stroke="#000000" stroke-width="0.2835" stroke-miterlimit="10" x1="601.927" y1="51.85" x2="593.427" y2="51.86"/>
	<line fill="none" stroke="#000000" stroke-width="0.2835" stroke-miterlimit="10" x1="593.427" y1="51.86" x2="593.375" y2="1"/>
</g>
<line fill="none" stroke="#FF0000" stroke-width="0.2835" stroke-miterlimit="10" x1="41.03" y1="371.661" x2="81.391" y2="371.661"/>
<line fill="none" stroke="#FF0000" stroke-width="0.2835" stroke-miterlimit="10" x1="120.62" y1="371.661" x2="160.989" y2="371.661"/>
<line fill="none" stroke="#FF0000" stroke-width="0.2835" stroke-miterlimit="10" x1="211.133" y1="266.212" x2="211.133" y2="295.411"/>
<line fill="none" stroke="#FF0000" stroke-width="0.2835" stroke-miterlimit="10" x1="211.133" y1="295.411" x2="202.625" y2="295.411"/>
<line fill="none" stroke="#FF0000" stroke-width="0.2835" stroke-miterlimit="10" x1="202.625" y1="295.411" x2="202.625" y2="333.962"/>
<line fill="none" stroke="#FF0000" stroke-width="0.2835" stroke-miterlimit="10" x1="211.133" y1="333.962" x2="202.625" y2="333.962"/>
<line fill="none" stroke="#FF0000" stroke-width="0.2835" stroke-miterlimit="10" x1="211.133" y1="333.962" x2="211.133" y2="363.161"/>
<line fill="none" stroke="#FF0000" stroke-width="0.2835" stroke-miterlimit="10" x1="393.111" y1="266.212" x2="393.111" y2="295.411"/>
<line fill="none" stroke="#FF0000" stroke-width="0.2835" stroke-miterlimit="10" x1="401.611" y1="295.411" x2="393.111" y2="295.411"/>
<line fill="none" stroke="#FF0000" stroke-width="0.2835" stroke-miterlimit="10" x1="401.611" y1="295.411" x2="401.611" y2="333.962"/>
<line fill="none" stroke="#FF0000" stroke-width="0.2835" stroke-miterlimit="10" x1="401.611" y1="333.962" x2="393.111" y2="333.962"/>
<line fill="none" stroke="#FF0000" stroke-width="0.2835" stroke-miterlimit="10" x1="393.111" y1="333.962" x2="393.111" y2="363.161"/>
<line fill="none" stroke="#FF0000" stroke-width="0.2835" stroke-miterlimit="10" x1="211.133" y1="266.212" x2="242.143" y2="266.212"/>
<line fill="none" stroke="#FF0000" stroke-width="0.2835" stroke-miterlimit="10" x1="242.143" y1="266.212" x2="242.143" y2="257.712"/>
<line fill="none" stroke="#FF0000" stroke-width="0.2835" stroke-miterlimit="10" x1="242.143" y1="257.712" x2="282.503" y2="257.712"/>
<line fill="none" stroke="#FF0000" stroke-width="0.2835" stroke-miterlimit="10" x1="282.503" y1="266.212" x2="282.503" y2="257.712"/>
<line fill="none" stroke="#FF0000" stroke-width="0.2835" stroke-miterlimit="10" x1="282.503" y1="266.212" x2="321.732" y2="266.212"/>
<line fill="none" stroke="#FF0000" stroke-width="0.2835" stroke-miterlimit="10" x1="321.732" y1="266.212" x2="321.732" y2="257.712"/>
<line fill="none" stroke="#FF0000" stroke-width="0.2835" stroke-miterlimit="10" x1="321.732" y1="257.712" x2="362.102" y2="257.712"/>
<line fill="none" stroke="#FF0000" stroke-width="0.2835" stroke-miterlimit="10" x1="362.102" y1="266.212" x2="362.102" y2="257.712"/>
<line fill="none" stroke="#FF0000" stroke-width="0.2835" stroke-miterlimit="10" x1="362.102" y1="266.212" x2="393.111" y2="266.212"/>
<line fill="none" stroke="#FF0000" stroke-width="0.2835" stroke-miterlimit="10" x1="211.133" y1="363.161" x2="242.143" y2="363.161"/>
<line fill="none" stroke="#FF0000" stroke-width="0.2835" stroke-miterlimit="10" x1="242.143" y1="371.661" x2="242.143" y2="363.161"/>
<line fill="none" stroke="#FF0000" stroke-width="0.2835" stroke-miterlimit="10" x1="242.143" y1="371.661" x2="282.503" y2="371.661"/>
<line fill="none" stroke="#FF0000" stroke-width="0.2835" stroke-miterlimit="10" x1="282.503" y1="371.661" x2="282.503" y2="363.161"/>
<line fill="none" stroke="#FF0000" stroke-width="0.2835" stroke-miterlimit="10" x1="282.503" y1="363.161" x2="321.732" y2="363.161"/>
<line fill="none" stroke="#FF0000" stroke-width="0.2835" stroke-miterlimit="10" x1="321.732" y1="371.661" x2="321.732" y2="363.161"/>
<line fill="none" stroke="#FF0000" stroke-width="0.2835" stroke-miterlimit="10" x1="321.732" y1="371.661" x2="362.102" y2="371.661"/>
<line fill="none" stroke="#FF0000" stroke-width="0.2835" stroke-miterlimit="10" x1="362.102" y1="371.661" x2="362.102" y2="363.161"/>
<line fill="none" stroke="#FF0000" stroke-width="0.2835" stroke-miterlimit="10" x1="362.102" y1="363.161" x2="393.111" y2="363.161"/>
<g>
	
		<line fill="none" stroke="#000000" stroke-width="0.2835" stroke-miterlimit="10" x1="191.997" y1="256.796" x2="232.077" y2="256.796"/>
	
		<line fill="none" stroke="#000000" stroke-width="0.2835" stroke-miterlimit="10" x1="232.077" y1="248.284" x2="232.077" y2="256.796"/>
	
		<line fill="none" stroke="#000000" stroke-width="0.2835" stroke-miterlimit="10" x1="232.077" y1="248.284" x2="271.306" y2="248.284"/>
	
		<line fill="none" stroke="#000000" stroke-width="0.2835" stroke-miterlimit="10" x1="271.306" y1="248.284" x2="271.306" y2="256.796"/>
	
		<line fill="none" stroke="#000000" stroke-width="0.2835" stroke-miterlimit="10" x1="271.306" y1="256.796" x2="311.668" y2="256.796"/>
	
		<line fill="none" stroke="#000000" stroke-width="0.2835" stroke-miterlimit="10" x1="311.668" y1="248.284" x2="311.668" y2="256.796"/>
	
		<line fill="none" stroke="#000000" stroke-width="0.2835" stroke-miterlimit="10" x1="311.668" y1="248.284" x2="350.906" y2="248.284"/>
	
		<line fill="none" stroke="#000000" stroke-width="0.2835" stroke-miterlimit="10" x1="350.906" y1="248.284" x2="350.906" y2="256.796"/>
	
		<line fill="none" stroke="#000000" stroke-width="0.2835" stroke-miterlimit="10" x1="350.906" y1="256.796" x2="382.477" y2="256.796"/>
	
		<line fill="none" stroke="#000000" stroke-width="0.2835" stroke-miterlimit="10" x1="191.997" y1="1.107" x2="232.077" y2="1.107"/>
	
		<line fill="none" stroke="#000000" stroke-width="0.2835" stroke-miterlimit="10" x1="232.077" y1="1.107" x2="232.077" y2="9.616"/>
	
		<line fill="none" stroke="#000000" stroke-width="0.2835" stroke-miterlimit="10" x1="232.077" y1="9.616" x2="271.306" y2="9.616"/>
	
		<line fill="none" stroke="#000000" stroke-width="0.2835" stroke-miterlimit="10" x1="271.306" y1="1.107" x2="271.306" y2="9.616"/>
	
		<line fill="none" stroke="#000000" stroke-width="0.2835" stroke-miterlimit="10" x1="271.306" y1="1.107" x2="311.668" y2="1.107"/>
	
		<line fill="none" stroke="#000000" stroke-width="0.2835" stroke-miterlimit="10" x1="311.668" y1="1.107" x2="311.668" y2="9.616"/>
	
		<line fill="none" stroke="#000000" stroke-width="0.2835" stroke-miterlimit="10" x1="311.668" y1="9.616" x2="350.906" y2="9.616"/>
	
		<line fill="none" stroke="#000000" stroke-width="0.2835" stroke-miterlimit="10" x1="350.906" y1="1.107" x2="350.906" y2="9.616"/>
	
		<line fill="none" stroke="#000000" stroke-width="0.2835" stroke-miterlimit="10" x1="350.906" y1="1.107" x2="382.477" y2="1.107"/>
	
		<line fill="none" stroke="#000000" stroke-width="0.2835" stroke-miterlimit="10" x1="191.997" y1="256.796" x2="191.997" y2="205.376"/>
	
		<line fill="none" stroke="#000000" stroke-width="0.2835" stroke-miterlimit="10" x1="200.497" y1="205.376" x2="191.997" y2="205.376"/>
	
		<line fill="none" stroke="#000000" stroke-width="0.2835" stroke-miterlimit="10" x1="200.497" y1="205.376" x2="200.497" y2="154.806"/>
	
		<line fill="none" stroke="#000000" stroke-width="0.2835" stroke-miterlimit="10" x1="200.497" y1="154.806" x2="191.997" y2="154.806"/>
	
		<line fill="none" stroke="#000000" stroke-width="0.2835" stroke-miterlimit="10" x1="191.997" y1="154.806" x2="191.997" y2="103.097"/>
	
		<line fill="none" stroke="#000000" stroke-width="0.2835" stroke-miterlimit="10" x1="200.497" y1="103.097" x2="191.997" y2="103.097"/>
	
		<line fill="none" stroke="#000000" stroke-width="0.2835" stroke-miterlimit="10" x1="200.497" y1="103.097" x2="200.497" y2="52.527"/>
	
		<line fill="none" stroke="#000000" stroke-width="0.2835" stroke-miterlimit="10" x1="200.497" y1="52.527" x2="191.997" y2="52.527"/>
	
		<line fill="none" stroke="#000000" stroke-width="0.2835" stroke-miterlimit="10" x1="191.997" y1="52.527" x2="191.997" y2="1.107"/>
</g>
<g>
	
		<line fill="none" stroke="#000000" stroke-width="0.2835" stroke-miterlimit="10" x1="382.477" y1="256.786" x2="420.746" y2="256.786"/>
	
		<line fill="none" stroke="#000000" stroke-width="0.2835" stroke-miterlimit="10" x1="420.746" y1="248.286" x2="420.746" y2="256.786"/>
	
		<line fill="none" stroke="#000000" stroke-width="0.2835" stroke-miterlimit="10" x1="420.746" y1="248.286" x2="458.156" y2="248.286"/>
	
		<line fill="none" stroke="#000000" stroke-width="0.2835" stroke-miterlimit="10" x1="458.156" y1="248.286" x2="458.156" y2="256.786"/>
	
		<line fill="none" stroke="#000000" stroke-width="0.2835" stroke-miterlimit="10" x1="458.156" y1="256.786" x2="487.927" y2="256.786"/>
	
		<line fill="none" stroke="#000000" stroke-width="0.2835" stroke-miterlimit="10" x1="382.477" y1="1.107" x2="420.746" y2="1.107"/>
	
		<line fill="none" stroke="#000000" stroke-width="0.2835" stroke-miterlimit="10" x1="420.746" y1="1.107" x2="420.746" y2="9.607"/>
	
		<line fill="none" stroke="#000000" stroke-width="0.2835" stroke-miterlimit="10" x1="420.746" y1="9.607" x2="458.156" y2="9.607"/>
	
		<line fill="none" stroke="#000000" stroke-width="0.2835" stroke-miterlimit="10" x1="458.156" y1="1.107" x2="458.156" y2="9.607"/>
	
		<line fill="none" stroke="#000000" stroke-width="0.2835" stroke-miterlimit="10" x1="458.156" y1="1.107" x2="487.927" y2="1.107"/>
	
		<line fill="none" stroke="#000000" stroke-width="0.2835" stroke-miterlimit="10" x1="382.477" y1="256.786" x2="382.477" y2="205.365"/>
	
		<line fill="none" stroke="#000000" stroke-width="0.2835" stroke-miterlimit="10" x1="390.977" y1="205.365" x2="382.477" y2="205.365"/>
	
		<line fill="none" stroke="#000000" stroke-width="0.2835" stroke-miterlimit="10" x1="390.977" y1="205.365" x2="390.977" y2="154.797"/>
	
		<line fill="none" stroke="#000000" stroke-width="0.2835" stroke-miterlimit="10" x1="390.977" y1="154.797" x2="382.477" y2="154.797"/>
	
		<line fill="none" stroke="#000000" stroke-width="0.2835" stroke-miterlimit="10" x1="382.477" y1="154.797" x2="382.477" y2="103.097"/>
	
		<line fill="none" stroke="#000000" stroke-width="0.2835" stroke-miterlimit="10" x1="390.977" y1="103.097" x2="382.477" y2="103.097"/>
	
		<line fill="none" stroke="#000000" stroke-width="0.2835" stroke-miterlimit="10" x1="390.977" y1="103.097" x2="390.977" y2="52.527"/>
	
		<line fill="none" stroke="#000000" stroke-width="0.2835" stroke-miterlimit="10" x1="390.977" y1="52.527" x2="382.477" y2="52.527"/>
	
		<line fill="none" stroke="#000000" stroke-width="0.2835" stroke-miterlimit="10" x1="382.477" y1="52.527" x2="382.477" y2="1.107"/>
</g>
<line fill="none" stroke="#FF0000" stroke-width="0.2835" stroke-miterlimit="10" x1="10.012" y1="266.211" x2="10.012" y2="295.411"/>
<line fill="none" stroke="#FF0000" stroke-width="0.2835" stroke-miterlimit="10" x1="10.012" y1="295.411" x2="1.512" y2="295.411"/>
<line fill="none" stroke="#FF0000" stroke-width="0.2835" stroke-miterlimit="10" x1="1.512" y1="295.411" x2="1.512" y2="333.961"/>
<line fill="none" stroke="#FF0000" stroke-width="0.2835" stroke-miterlimit="10" x1="10.012" y1="333.961" x2="1.512" y2="333.961"/>
<line fill="none" stroke="#FF0000" stroke-width="0.2835" stroke-miterlimit="10" x1="10.012" y1="333.961" x2="10.012" y2="363.161"/>
<line fill="none" stroke="#FF0000" stroke-width="0.2835" stroke-miterlimit="10" x1="191.991" y1="266.211" x2="191.991" y2="295.411"/>
<line fill="none" stroke="#FF0000" stroke-width="0.2835" stroke-miterlimit="10" x1="200.501" y1="295.411" x2="191.991" y2="295.411"/>
<line fill="none" stroke="#FF0000" stroke-width="0.2835" stroke-miterlimit="10" x1="200.501" y1="295.411" x2="200.501" y2="333.961"/>
<line fill="none" stroke="#FF0000" stroke-width="0.2835" stroke-miterlimit="10" x1="200.501" y1="333.961" x2="191.991" y2="333.961"/>
<line fill="none" stroke="#FF0000" stroke-width="0.2835" stroke-miterlimit="10" x1="191.991" y1="333.961" x2="191.991" y2="363.161"/>
<line fill="none" stroke="#FF0000" stroke-width="0.2835" stroke-miterlimit="10" x1="10.012" y1="266.211" x2="41.021" y2="266.211"/>
<line fill="none" stroke="#FF0000" stroke-width="0.2835" stroke-miterlimit="10" x1="41.021" y1="266.211" x2="41.021" y2="257.71"/>
<line fill="none" stroke="#FF0000" stroke-width="0.2835" stroke-miterlimit="10" x1="41.021" y1="257.71" x2="81.392" y2="257.71"/>
<line fill="none" stroke="#FF0000" stroke-width="0.2835" stroke-miterlimit="10" x1="81.392" y1="266.211" x2="81.392" y2="257.71"/>
<line fill="none" stroke="#FF0000" stroke-width="0.2835" stroke-miterlimit="10" x1="81.392" y1="266.211" x2="120.621" y2="266.211"/>
<line fill="none" stroke="#FF0000" stroke-width="0.2835" stroke-miterlimit="10" x1="120.621" y1="266.211" x2="120.621" y2="257.71"/>
<line fill="none" stroke="#FF0000" stroke-width="0.2835" stroke-miterlimit="10" x1="120.621" y1="257.71" x2="160.982" y2="257.71"/>
<line fill="none" stroke="#FF0000" stroke-width="0.2835" stroke-miterlimit="10" x1="160.982" y1="266.211" x2="160.982" y2="257.71"/>
<line fill="none" stroke="#FF0000" stroke-width="0.2835" stroke-miterlimit="10" x1="160.982" y1="266.211" x2="191.991" y2="266.211"/>
<line fill="none" stroke="#FF0000" stroke-width="0.2835" stroke-miterlimit="10" x1="10.012" y1="363.161" x2="41.021" y2="363.161"/>
<line fill="none" stroke="#FF0000" stroke-width="0.2835" stroke-miterlimit="10" x1="41.021" y1="371.661" x2="41.021" y2="363.161"/>
<line fill="none" stroke="#FF0000" stroke-width="0.2835" stroke-miterlimit="10" x1="81.392" y1="371.661" x2="81.392" y2="363.161"/>
<line fill="none" stroke="#FF0000" stroke-width="0.2835" stroke-miterlimit="10" x1="81.392" y1="363.161" x2="120.62" y2="363.161"/>
<line fill="none" stroke="#FF0000" stroke-width="0.2835" stroke-miterlimit="10" x1="120.62" y1="371.661" x2="120.62" y2="363.161"/>
<line fill="none" stroke="#FF0000" stroke-width="0.2835" stroke-miterlimit="10" x1="160.981" y1="371.661" x2="160.981" y2="363.161"/>
<line fill="none" stroke="#FF0000" stroke-width="0.2835" stroke-miterlimit="10" x1="160.981" y1="363.161" x2="191.991" y2="363.161"/>
<g>
	
		<line fill="none" stroke="#000000" stroke-width="0.2835" stroke-miterlimit="10" x1="1.506" y1="256.796" x2="41.596" y2="256.796"/>
	
		<line fill="none" stroke="#000000" stroke-width="0.2835" stroke-miterlimit="10" x1="41.596" y1="248.288" x2="41.596" y2="256.796"/>
	
		<line fill="none" stroke="#000000" stroke-width="0.2835" stroke-miterlimit="10" x1="41.596" y1="248.288" x2="80.826" y2="248.288"/>
	
		<line fill="none" stroke="#000000" stroke-width="0.2835" stroke-miterlimit="10" x1="80.826" y1="248.288" x2="80.826" y2="256.796"/>
	
		<line fill="none" stroke="#000000" stroke-width="0.2835" stroke-miterlimit="10" x1="80.826" y1="256.796" x2="121.186" y2="256.796"/>
	
		<line fill="none" stroke="#000000" stroke-width="0.2835" stroke-miterlimit="10" x1="121.186" y1="248.288" x2="121.186" y2="256.796"/>
	
		<line fill="none" stroke="#000000" stroke-width="0.2835" stroke-miterlimit="10" x1="121.186" y1="248.288" x2="160.416" y2="248.288"/>
	
		<line fill="none" stroke="#000000" stroke-width="0.2835" stroke-miterlimit="10" x1="160.416" y1="248.288" x2="160.416" y2="256.796"/>
	
		<line fill="none" stroke="#000000" stroke-width="0.2835" stroke-miterlimit="10" x1="160.416" y1="256.796" x2="191.996" y2="256.796"/>
	<line fill="none" stroke="#000000" stroke-width="0.2835" stroke-miterlimit="10" x1="1.506" y1="1.107" x2="41.596" y2="1.107"/>
	<line fill="none" stroke="#000000" stroke-width="0.2835" stroke-miterlimit="10" x1="41.596" y1="1.107" x2="41.596" y2="9.616"/>
	<line fill="none" stroke="#000000" stroke-width="0.2835" stroke-miterlimit="10" x1="41.596" y1="9.616" x2="80.826" y2="9.616"/>
	<line fill="none" stroke="#000000" stroke-width="0.2835" stroke-miterlimit="10" x1="80.826" y1="1.107" x2="80.826" y2="9.616"/>
	
		<line fill="none" stroke="#000000" stroke-width="0.2835" stroke-miterlimit="10" x1="80.826" y1="1.107" x2="121.186" y2="1.107"/>
	
		<line fill="none" stroke="#000000" stroke-width="0.2835" stroke-miterlimit="10" x1="121.186" y1="1.107" x2="121.186" y2="9.616"/>
	
		<line fill="none" stroke="#000000" stroke-width="0.2835" stroke-miterlimit="10" x1="121.186" y1="9.616" x2="160.416" y2="9.616"/>
	
		<line fill="none" stroke="#000000" stroke-width="0.2835" stroke-miterlimit="10" x1="160.416" y1="1.107" x2="160.416" y2="9.616"/>
	
		<line fill="none" stroke="#000000" stroke-width="0.2835" stroke-miterlimit="10" x1="160.416" y1="1.107" x2="191.996" y2="1.107"/>
	
		<line fill="none" stroke="#000000" stroke-width="0.2835" stroke-miterlimit="10" x1="1.506" y1="256.796" x2="1.506" y2="205.376"/>
	
		<line fill="none" stroke="#000000" stroke-width="0.2835" stroke-miterlimit="10" x1="10.016" y1="205.376" x2="1.506" y2="205.376"/>
	
		<line fill="none" stroke="#000000" stroke-width="0.2835" stroke-miterlimit="10" x1="10.016" y1="205.376" x2="10.016" y2="154.808"/>
	
		<line fill="none" stroke="#000000" stroke-width="0.2835" stroke-miterlimit="10" x1="10.016" y1="154.808" x2="1.506" y2="154.808"/>
	
		<line fill="none" stroke="#000000" stroke-width="0.2835" stroke-miterlimit="10" x1="1.506" y1="154.808" x2="1.506" y2="103.097"/>
	
		<line fill="none" stroke="#000000" stroke-width="0.2835" stroke-miterlimit="10" x1="10.016" y1="103.097" x2="1.506" y2="103.097"/>
	
		<line fill="none" stroke="#000000" stroke-width="0.2835" stroke-miterlimit="10" x1="10.016" y1="103.097" x2="10.016" y2="52.527"/>
	
		<line fill="none" stroke="#000000" stroke-width="0.2835" stroke-miterlimit="10" x1="10.016" y1="52.527" x2="1.506" y2="52.527"/>
	<line fill="none" stroke="#000000" stroke-width="0.2835" stroke-miterlimit="10" x1="1.506" y1="52.527" x2="1.506" y2="1.107"/>
	<g>
		<path fill="#FFFFFF" stroke="#000000" stroke-width="0.2835" stroke-miterlimit="10" d="M170.42,203.515
			c-2.481,0-4.5-2.018-4.5-4.5c0-2.479,2.019-4.5,4.5-4.5c2.482,0,4.5,2.021,4.5,4.5C174.92,201.499,172.904,203.515,170.42,203.515
			"/>
		<path fill="#FFFFFF" stroke="#000000" stroke-width="0.2835" stroke-miterlimit="10" d="M48.02,59.517c-2.48,0-4.5-2.02-4.5-4.5
			c0-2.479,2.02-4.5,4.5-4.5c2.486,0,4.5,2.021,4.5,4.5C52.52,57.499,50.506,59.517,48.02,59.517"/>
		<path fill="#FFFFFF" stroke="#000000" stroke-width="0.2835" stroke-miterlimit="10" d="M33.62,207.115
			c-2.484,0-4.5-2.021-4.5-4.5c0-2.48,2.016-4.5,4.5-4.5c2.481,0,4.5,2.02,4.5,4.5C38.12,205.099,36.106,207.115,33.62,207.115"/>
		<path fill="#FFFFFF" stroke="#000000" stroke-width="0.2835" stroke-miterlimit="10" d="M127.221,59.517
			c-2.482,0-4.5-2.02-4.5-4.5c0-2.479,2.018-4.5,4.5-4.5c2.483,0,4.5,2.021,4.5,4.5C131.721,57.499,129.706,59.517,127.221,59.517"
			/>
	</g>
</g>
<rect x="100.341" y="319.21" fill="none" stroke="#FF0000" stroke-width="0.2835" stroke-miterlimit="10" width="32.705" height="16.376"/>
<rect x="137.431" y="290.247" fill="none" stroke="#FF0000" stroke-width="0.2835" stroke-miterlimit="10" width="24.014" height="45.228"/>
<rect x="35.279" y="290.055" fill="none" stroke="#FF0000" stroke-width="0.2835" stroke-miterlimit="10" width="50.168" height="45"/>
</svg>
